<svg version="1.1" id="Layer_1" xmlns="http://www.w3.org/2000/svg" xmlns:xlink="http://www.w3.org/1999/xlink" x="0px" y="0px"
	 width="100%" viewBox="0 0 1024 1024" enable-background="new 0 0 1024 1024" xml:space="preserve">
<path fill="#000000" opacity="1.000000" stroke="none" 
	d="
M588.124695,261.000031 
	C588.133606,279.331024 588.128845,297.162079 588.157104,314.993073 
	C588.167419,321.466583 588.543518,321.733032 594.911316,321.845398 
	C606.730103,322.053955 618.567017,321.253143 630.369690,322.638184 
	C633.255676,322.976868 635.906982,323.672821 638.403931,325.099579 
	C649.685425,331.546051 660.942200,338.036743 672.277161,344.387817 
	C674.953064,345.887146 676.010315,347.929932 675.963379,350.877747 
	C675.777710,362.536987 675.428894,374.229492 675.714722,385.851929 
	C676.198181,405.511566 674.753601,425.143677 675.706726,444.798370 
	C676.570679,462.612122 675.459900,480.443207 675.414734,498.267426 
	C675.321350,535.096008 675.383240,571.925110 675.173584,608.752808 
	C675.148071,613.233704 676.694153,614.711487 680.980835,615.422058 
	C695.311462,617.797668 709.264099,621.530884 722.511169,627.767761 
	C728.718933,630.690430 731.710022,634.885986 731.339111,641.817200 
	C730.191467,663.260803 723.169739,682.803040 712.700684,701.319702 
	C705.750610,713.612366 696.417236,724.023804 687.104675,734.473755 
	C685.928406,735.793762 684.230042,736.793579 683.935913,739.664734 
	C705.053833,739.664734 726.054382,739.664734 746.862976,739.664734 
	C747.776367,742.832581 745.769775,743.682922 744.551697,744.858154 
	C710.674133,777.546997 670.415405,799.351257 626.042053,814.032776 
	C587.671143,826.728210 548.201233,832.333496 507.890656,829.970215 
	C464.910675,827.450500 423.715118,817.373108 384.787048,798.412170 
	C356.703827,784.733643 330.723816,768.228333 308.865021,745.689270 
	C307.625397,744.411194 305.917236,743.434509 305.592163,740.346130 
	C326.722137,739.104614 347.840546,740.523376 368.851318,739.537598 
	C369.113495,736.744629 367.202759,735.885742 366.054962,734.588989 
	C344.943848,710.737732 329.005646,684.194031 323.266418,652.356384 
	C322.647308,648.921875 322.152710,645.435303 321.989410,641.954712 
	C321.694061,635.659546 323.787262,630.505005 329.812073,627.551331 
	C333.102142,625.938354 336.341919,624.220886 339.653076,622.653442 
	C342.163391,621.465027 343.551514,619.706238 343.473450,616.819336 
	C342.491211,580.500793 343.223328,544.175232 343.059967,507.853180 
	C342.978271,489.689301 343.107483,471.523834 342.920074,453.361389 
	C342.874695,448.964172 344.506622,446.337280 348.322052,444.209869 
	C359.667572,437.883850 370.774261,431.130157 382.103943,424.774719 
	C385.649597,422.785828 386.777130,420.210724 386.755371,416.277374 
	C386.624420,392.614502 386.806458,368.949707 386.615234,345.287689 
	C386.576874,340.542297 388.108673,337.628143 392.245331,335.224518 
	C405.351501,327.609161 418.348602,319.792786 431.167633,311.705078 
	C434.864105,309.372925 437.987091,309.133636 441.877472,310.745697 
	C446.759521,312.768707 451.525909,315.201111 456.788086,316.327545 
	C458.796692,314.156464 458.582581,311.593628 458.594360,309.162384 
	C458.650818,297.497437 458.668610,285.832001 458.620392,274.167023 
	C458.593170,267.578613 458.002289,267.002533 451.472839,267.001617 
	C421.310638,266.997498 391.148468,267.037567 360.986267,267.021545 
	C358.498962,267.020233 355.949768,267.005219 353.539612,266.485321 
	C350.227234,265.770752 348.411133,263.439850 348.533600,259.966675 
	C348.659882,256.386078 350.979095,254.620667 354.209747,254.010834 
	C355.825653,253.705795 357.531250,253.836609 359.196259,253.836639 
	C390.025391,253.837204 420.854553,253.860382 451.683685,253.846664 
	C458.665100,253.843552 458.926331,253.774963 458.588623,246.965958 
	C458.348450,242.122986 460.389740,239.285828 464.359863,236.902725 
	C483.067841,225.673141 501.732025,214.367065 520.258667,202.841965 
	C523.858521,200.602524 526.549255,200.424698 530.233032,202.637253 
	C548.079956,213.356476 566.059631,223.856873 584.079041,234.284851 
	C587.062500,236.011429 588.329712,238.100723 588.230103,241.504059 
	C588.044739,247.831665 588.143555,254.167603 588.124695,261.000031 
M575.302002,481.128479 
	C561.619629,455.255188 544.088074,431.945343 526.924194,408.386169 
	C524.490967,405.046326 522.585022,405.464111 520.529175,408.622101 
	C515.622437,416.159393 510.629150,423.640656 505.757446,431.200409 
	C490.157501,455.407959 473.864410,479.174255 464.278290,506.758606 
	C451.495178,543.542358 468.444702,587.588379 502.962677,605.778564 
	C504.493835,606.585449 505.965302,607.924866 508.356110,607.100342 
	C507.132172,603.647339 504.569153,601.220764 502.595978,598.453308 
	C488.483307,578.660034 483.086182,557.249268 489.641846,533.264038 
	C495.846558,510.562622 508.984161,491.777374 522.622314,473.220123 
	C522.971313,472.745209 523.714844,472.560181 524.343872,472.200165 
	C524.955261,472.694458 525.565430,473.024963 525.955322,473.526703 
	C538.255432,489.356750 549.386597,505.867035 556.892090,524.633118 
	C568.160461,552.807434 564.631226,578.721130 545.684570,602.501343 
	C544.649231,603.800842 543.074219,605.104919 543.871765,607.435547 
	C546.284485,607.176025 548.113342,606.007996 549.915833,604.887024 
	C557.320374,600.281677 563.796448,594.631897 569.492310,587.992920 
	C583.851318,571.256287 590.440857,551.802856 589.503723,529.935974 
	C588.771667,512.855164 583.182495,497.003235 575.302002,481.128479 
M599.302002,505.361237 
	C609.858276,543.874939 599.631775,577.169800 572.835632,606.286133 
	C574.366272,607.036011 574.936523,607.558228 575.508545,607.560242 
	C591.993042,607.618835 608.465881,608.048706 624.928589,608.906677 
	C627.410278,609.036133 628.568665,607.621887 628.618591,605.217651 
	C628.656738,603.386353 628.700317,601.554565 628.701477,599.723022 
	C628.746094,527.604004 628.785217,455.484924 628.827515,383.365875 
	C628.834900,370.707489 628.795410,358.048645 628.904114,345.391083 
	C628.934387,341.860962 627.711243,340.221558 623.975525,340.262512 
	C613.483948,340.377563 602.989868,340.298340 592.497070,340.243469 
	C588.876221,340.224548 587.122131,342.117096 587.482910,345.517822 
	C588.031982,350.694183 587.388306,355.825287 587.385620,360.975922 
	C587.366455,397.785126 587.361572,434.594360 587.309143,471.403503 
	C587.305298,474.116791 587.735840,476.591187 588.931152,479.093658 
	C592.877930,487.356812 596.540283,495.750427 599.302002,505.361237 
M436.017853,343.634155 
	C435.762329,341.066956 436.748291,338.334320 435.100983,335.905457 
	C432.757599,335.576843 431.303955,337.159485 429.681793,338.184296 
	C422.080688,342.986603 414.651337,348.075012 406.909302,352.634430 
	C402.644958,355.145844 401.123016,358.281494 401.125641,363.181671 
	C401.168121,442.297760 401.054962,521.413940 400.982666,600.530090 
	C400.981018,602.361389 401.020416,604.193542 401.082764,606.023865 
	C401.175690,608.752136 402.548492,609.910278 405.298889,609.510925 
	C413.380371,608.337891 421.510101,607.698914 429.672882,607.557617 
	C434.095398,607.481079 435.990356,605.836609 435.984741,600.934143 
	C435.886902,515.489075 435.971893,430.043793 436.017853,343.634155 
M381.678680,652.781921 
	C404.750641,655.551147 427.814056,656.085327 450.908264,652.893127 
	C470.256622,650.218750 488.768280,645.200073 505.218567,634.209778 
	C507.998627,632.352417 511.201752,630.751709 512.518188,627.207031 
	C511.050934,625.779785 509.449982,625.493042 507.792694,625.229187 
	C496.925934,623.498840 485.989960,622.466370 474.994873,622.259399 
	C452.676575,621.839233 430.360748,621.829956 408.129150,624.261230 
	C390.251984,626.216125 372.400421,628.404236 355.062134,633.443481 
	C350.181702,634.862000 345.318970,636.506104 340.341736,640.786621 
	C353.487976,648.196472 367.045288,650.741028 381.678680,652.781921 
M537.661560,628.996094 
	C538.627930,629.890015 539.498047,630.925781 540.575256,631.656189 
	C553.161499,640.189636 567.219360,645.258667 581.875488,648.732056 
	C609.195190,655.206787 636.877014,656.338318 664.750732,653.706116 
	C678.709656,652.387939 692.503235,650.145752 705.671570,645.053101 
	C707.743103,644.252014 710.291992,643.978394 711.055359,641.279236 
	C707.900635,638.428101 705.804993,637.682495 697.027771,635.343811 
	C674.563232,629.358337 651.529114,627.306519 628.514587,624.864380 
	C600.235046,621.863525 572.036438,621.851807 543.840332,625.431213 
	C541.559265,625.720825 538.659424,625.296143 537.661560,628.996094 
M521.923950,639.555359 
	C514.259155,646.050049 505.977661,651.670349 496.769196,655.663208 
	C447.492096,677.029907 397.504028,676.759827 347.038696,660.248413 
	C345.595337,659.776184 344.225739,658.322693 342.365082,659.761902 
	C343.375885,665.277954 347.192932,668.308716 351.834595,670.517944 
	C360.165070,674.482666 369.046844,676.927612 378.026062,678.635376 
	C401.131561,683.029846 424.444427,683.126831 447.625885,679.609253 
	C474.325317,675.557861 500.203735,668.781738 522.330017,652.125183 
	C524.594116,650.420898 526.253418,650.575073 528.551025,652.120850 
	C532.964905,655.090210 537.488525,657.975525 542.237183,660.355957 
	C583.110596,680.844971 626.492004,685.062134 671.201599,679.506714 
	C682.578125,678.093079 693.928406,675.824158 704.261230,670.322998 
	C708.330811,668.156250 711.159668,665.091858 711.648499,660.149048 
	C708.555847,659.747253 706.430542,660.876221 704.260315,661.621704 
	C696.053955,664.440552 687.731628,666.807922 679.172852,668.266296 
	C653.040955,672.719055 626.825928,673.737854 600.648315,669.031677 
	C574.401611,664.313110 548.800781,657.735168 528.229614,639.156677 
	C526.194336,637.318542 524.401733,637.557129 521.923950,639.555359 
M511.765411,564.355652 
	C508.389191,581.491882 516.575562,594.693054 526.361145,608.420227 
	C535.470337,595.193481 541.839600,581.995117 539.602051,566.396179 
	C537.851685,554.193787 531.946167,543.546265 525.746460,532.565918 
	C520.968445,538.039368 513.705139,554.901550 511.765411,564.355652 
M547.574890,774.819031 
	C547.845093,771.172119 547.960022,767.556152 546.916931,763.965149 
	C545.574219,759.342590 542.492493,757.150635 537.800964,757.035095 
	C531.933655,756.890503 528.527954,761.100708 528.099304,768.981689 
	C527.538025,779.301270 530.230469,784.289001 536.679810,784.877258 
	C542.647156,785.421570 545.045410,783.355408 547.574890,774.819031 
M519.292114,271.549255 
	C522.184937,263.803406 520.409973,255.806396 520.491821,247.916519 
	C520.508972,246.264450 519.240784,245.358459 517.445740,245.296417 
	C512.479431,245.124847 508.904144,248.151917 508.566040,253.035797 
	C508.394226,255.517426 508.241180,258.025726 508.407104,260.500031 
	C508.742676,265.502594 508.518280,270.603424 509.880280,275.557861 
	C513.583130,275.091339 516.114624,273.479950 519.292114,271.549255 
M488.624512,310.306305 
	C485.698608,311.189972 483.511230,312.797180 483.464142,316.148376 
	C483.373352,322.602509 483.319519,329.058716 483.392853,335.512482 
	C483.411133,337.118286 483.676697,338.946716 485.771912,339.382904 
	C488.500031,339.950958 494.441956,336.303864 494.621918,333.531555 
	C495.144348,325.483246 495.163879,317.416473 494.493408,309.403015 
	C492.349670,308.758667 490.840485,309.456635 488.624512,310.306305 
M520.791809,314.396576 
	C520.758789,310.255859 520.749756,306.114716 520.679688,301.974609 
	C520.654968,300.511780 520.819031,298.854279 519.100464,298.126495 
	C516.435303,296.997833 509.172791,301.290863 509.081116,304.296692 
	C508.879211,310.914825 508.973297,317.543457 509.024689,324.167175 
	C509.048523,327.240845 510.586426,328.212067 513.585815,327.372253 
	C519.837402,325.621857 520.687073,324.300995 520.791809,314.396576 
M490.468842,391.842255 
	C492.801025,391.098663 494.825897,390.027557 494.839508,387.162262 
	C494.871796,380.375549 494.887238,373.588440 494.840546,366.801941 
	C494.831573,365.495636 494.681488,364.127716 492.972900,363.711609 
	C489.884430,362.959442 483.561707,367.222534 483.440125,370.439117 
	C483.221222,376.228699 483.162109,382.029663 483.235107,387.823395 
	C483.309235,393.706909 483.851532,393.991882 490.468842,391.842255 
M513.354797,352.843964 
	C511.200256,353.855225 509.102509,354.943024 509.094452,357.777710 
	C509.075592,364.413574 509.056183,371.049866 509.116547,377.685272 
	C509.130798,379.251221 509.571533,380.621826 511.656036,380.638824 
	C515.931274,380.673645 520.677612,376.332336 520.770386,371.976654 
	C520.879822,366.834442 520.875854,361.685974 520.759521,356.543854 
	C520.630737,350.851715 519.705811,350.345215 513.354797,352.843964 
M483.193573,276.401489 
	C483.189117,277.395233 483.110168,278.395386 483.195404,279.381378 
	C483.384949,281.574707 482.296631,284.532257 485.165680,285.452026 
	C488.001862,286.361176 490.753357,284.910706 492.904022,283.051697 
	C494.618103,281.570099 494.738220,279.195862 494.745850,277.040833 
	C494.761536,272.570557 494.631805,268.099579 494.543732,263.629242 
	C494.496124,261.210815 495.339508,258.176147 492.548340,256.998657 
	C490.123383,255.975647 487.850616,257.951996 485.628265,258.980652 
	C483.693970,259.875977 483.238251,261.563599 483.237854,263.505798 
	C483.237030,267.480530 483.209229,271.455261 483.193573,276.401489 
M655.121521,467.394073 
	C655.068909,464.565857 655.141724,461.728302 654.931946,458.911774 
	C654.668823,455.379364 651.582214,455.172302 649.103516,454.465515 
	C647.412781,453.983368 645.497986,454.112244 645.113953,456.270752 
	C643.853882,463.354523 643.388977,470.538483 645.315430,477.523590 
	C646.223267,480.815338 649.879272,481.591339 652.737854,481.426727 
	C655.886414,481.245422 655.104553,477.902435 655.313293,475.804352 
	C655.558167,473.343903 655.208130,470.824310 655.121521,467.394073 
M655.367615,414.065674 
	C655.274536,412.917786 655.421814,411.682953 655.043884,410.638123 
	C653.867004,407.384888 650.812012,407.215179 648.048035,406.910339 
	C646.221375,406.708862 645.368774,408.211151 645.237854,409.784515 
	C644.714600,416.073853 644.417236,422.407135 645.326416,428.655029 
	C645.900269,432.598236 649.810608,433.078400 652.725220,433.284393 
	C655.682495,433.493378 655.281189,430.151154 655.396484,428.278625 
	C655.671082,423.820770 655.415649,419.330231 655.367615,414.065674 
M655.008423,371.530548 
	C654.939697,369.045288 654.992493,366.549286 654.774170,364.077240 
	C654.436035,360.247528 651.096191,360.008301 648.487976,359.710724 
	C645.622864,359.383911 645.097839,362.004761 645.079651,364.204834 
	C645.034607,369.672363 645.062805,375.148926 645.341125,380.607605 
	C645.522888,384.171692 648.522217,385.284607 651.327393,385.417389 
	C654.313293,385.558777 654.866272,382.900543 654.956665,380.459778 
	C655.054688,377.810059 654.996582,375.154572 655.008423,371.530548 
M631.240112,759.276001 
	C627.575317,756.519165 623.294922,757.400940 619.192383,757.243652 
	C616.491028,757.140015 615.216858,758.476379 615.227173,761.161072 
	C615.244385,765.652527 615.205139,770.144104 615.219299,774.635559 
	C615.253418,785.483154 615.632751,785.810608 626.507324,784.545532 
	C627.002014,784.487915 627.500977,784.432312 627.984619,784.318848 
	C633.289734,783.074768 635.542725,777.694458 632.659363,773.020386 
	C631.982361,771.923035 631.024475,770.998901 630.039856,769.806091 
	C632.510620,766.769043 634.167419,763.593262 631.240112,759.276001 
M457.193909,780.098206 
	C457.348907,787.455383 462.985321,784.573730 466.433411,784.617920 
	C474.529205,784.721619 478.887360,779.717407 478.950470,771.174500 
	C479.016174,762.273010 475.101288,757.746948 466.893738,757.267517 
	C465.399780,757.180237 463.892822,757.265137 462.405365,757.126221 
	C458.632019,756.773926 456.900879,758.192566 457.075043,762.215088 
	C457.319458,767.861572 457.160828,773.525513 457.193909,780.098206 
M376.935364,494.000153 
	C376.937378,490.022675 377.000031,486.043976 376.922974,482.068054 
	C376.856781,478.652740 374.907227,477.855255 371.892517,478.700439 
	C368.829041,479.559235 367.028931,481.272278 367.205963,484.732086 
	C367.358215,487.707703 367.088257,490.706177 367.266846,493.678802 
	C367.403473,495.952332 366.256470,499.340027 369.928040,499.625885 
	C373.106628,499.873383 376.315033,499.002075 376.935364,494.000153 
M407.378540,765.895691 
	C407.864319,767.827454 409.133453,769.135742 410.902313,769.850586 
	C413.669983,770.969116 416.543274,771.830017 419.294983,772.983398 
	C421.717529,773.998657 423.604675,775.522034 423.268799,778.615112 
	C422.914307,781.879761 420.350189,782.344055 417.923035,782.941040 
	C413.697083,783.980469 410.829590,781.211609 407.867065,778.798584 
	C406.669159,780.871887 407.754639,782.005920 408.840668,783.022522 
	C412.081329,786.055847 421.680206,785.544006 424.630249,782.232361 
	C428.078583,778.361267 427.053802,773.283936 422.268951,771.171204 
	C419.993011,770.166260 417.551575,769.541504 415.205292,768.688843 
	C412.774353,767.805542 410.474182,766.579834 410.224976,763.697144 
	C410.058228,761.768188 411.109680,760.095337 412.988373,759.337341 
	C415.626495,758.272949 418.144287,758.585876 420.584534,760.195557 
	C421.830139,761.017151 421.992615,763.446167 424.285004,762.807373 
	C423.453979,758.108643 420.504120,756.162720 414.912292,756.551880 
	C410.065094,756.889343 407.585449,759.675964 407.378540,765.895691 
M367.345520,528.250732 
	C367.314453,531.900635 367.250458,535.550720 367.264526,539.200439 
	C367.273132,541.429688 367.377441,543.816345 370.443695,543.808838 
	C373.125854,543.802307 376.278320,543.575073 376.703979,540.232300 
	C377.387726,534.862671 377.540985,529.409790 376.345093,523.817505 
	C372.655609,523.970825 369.325195,523.820679 367.345520,528.250732 
M555.089966,781.245728 
	C559.557556,785.256836 564.336243,786.006226 568.094849,783.285156 
	C571.665894,780.699890 573.069702,775.867126 571.455322,771.716309 
	C569.639099,767.046570 565.766541,765.912781 556.162476,767.401367 
	C555.538391,763.779175 557.507507,761.227905 559.964294,759.395447 
	C563.461060,756.787170 566.636169,759.210327 569.674011,761.166931 
	C564.787598,755.013123 557.061523,756.019226 554.581543,763.094604 
	C552.565186,768.847351 552.116699,774.772278 555.089966,781.245728 
M651.448303,779.408630 
	C651.282898,779.389282 651.103882,779.322083 650.955933,779.364136 
	C650.809509,779.405701 650.566650,779.591370 650.583801,779.656189 
	C651.775818,784.162109 655.548462,784.552917 659.197510,784.791321 
	C664.518250,785.138977 668.180542,782.771790 668.861328,778.895508 
	C669.628174,774.529541 667.603699,771.787231 662.179138,769.858826 
	C659.991516,769.081055 657.736145,768.456543 655.627625,767.505188 
	C653.881775,766.717529 652.615479,765.288513 652.886475,763.173523 
	C653.173096,760.936890 654.715881,759.606506 656.761902,759.080017 
	C659.461304,758.385376 662.013306,758.695862 664.185242,760.781494 
	C665.131531,761.690186 665.896057,763.503052 667.804077,762.254395 
	C665.995117,757.401978 660.829346,755.731812 655.076294,757.975342 
	C652.066895,759.148987 650.668091,761.416138 650.386108,764.449890 
	C650.085571,767.682312 652.167847,769.311646 654.820984,770.317627 
	C657.619324,771.378601 660.522705,772.165039 663.309937,773.251770 
	C665.851013,774.242493 666.647095,776.331787 666.265198,778.932373 
	C665.892395,781.470520 664.162476,782.595154 661.853943,783.012024 
	C657.953613,783.716187 654.605347,782.668030 651.448303,779.408630 
M393.320709,769.468140 
	C389.361877,770.018616 387.942383,768.074219 387.921661,764.326721 
	C387.899323,760.286377 389.682861,758.588562 393.706451,758.786560 
	C395.890564,758.894043 398.195648,759.153015 400.265625,757.709290 
	C396.348328,757.184814 392.447876,757.136963 388.549377,757.203125 
	C386.290985,757.241455 385.295715,758.630615 385.298645,760.782532 
	C385.307831,767.604736 385.326355,774.427002 385.378204,781.248962 
	C385.388733,782.635559 385.762695,784.324402 387.250305,784.401978 
	C391.641296,784.630798 396.051880,784.483704 400.454834,784.483704 
	C397.819611,782.612427 395.137238,783.094666 392.512726,783.101990 
	C388.542877,783.113098 387.842529,780.708008 387.989136,777.505859 
	C388.133789,774.345581 387.713959,770.865845 392.560272,770.861023 
	C394.882935,770.858704 397.316498,771.312195 400.186157,770.158691 
	C397.731689,768.988098 395.888580,769.494873 393.320709,769.468140 
M518.570557,783.092834 
	C515.715027,782.625977 512.568176,783.977844 509.932526,781.813904 
	C510.194153,779.294128 512.121521,778.058594 513.645386,776.613098 
	C516.196716,774.192993 518.609009,771.655701 520.439697,768.657532 
	C522.817688,764.762878 522.112061,760.632996 518.874023,758.441345 
	C515.189880,755.947693 508.274750,756.754761 506.053345,759.961853 
	C505.376617,760.938843 504.833954,761.977051 505.967468,763.021301 
	C507.259003,763.282593 507.791931,762.270081 508.382538,761.541016 
	C510.756561,758.610596 513.627686,757.851807 516.678284,760.119873 
	C519.891479,762.508789 519.347290,765.689392 517.318115,768.523499 
	C515.095947,771.627136 512.511719,774.469910 510.118164,777.452820 
	C508.524048,779.439453 505.871490,780.688477 505.450287,784.267944 
	C510.358215,785.127441 515.132996,785.064209 519.824951,784.459473 
	C521.236816,784.277527 519.916382,783.454407 518.570557,783.092834 
M589.703308,771.181580 
	C593.597900,773.073975 595.712891,776.234680 593.156921,780.025940 
	C589.067688,786.091553 584.302612,781.990601 579.422485,779.299561 
	C579.956543,783.668823 582.871826,784.231201 585.499084,784.652954 
	C589.473206,785.291077 593.296448,784.601685 595.677490,780.947144 
	C597.339661,778.396057 597.489136,775.457397 595.300293,773.069031 
	C593.437317,771.036377 592.146973,769.381653 594.399597,766.711670 
	C596.168213,764.615417 596.273987,762.075806 594.396057,759.835083 
	C591.800110,756.737671 588.267151,756.742981 584.731750,757.328918 
	C582.140930,757.758301 580.338440,759.194092 580.018188,762.262634 
	C582.516296,762.415039 584.271973,761.309692 585.842590,760.297485 
	C588.377686,758.663635 590.569214,758.361023 592.224121,761.117249 
	C593.903320,763.914062 593.792236,766.531494 590.393188,768.164673 
	C589.303040,768.688477 588.199524,769.259888 589.703308,771.181580 
M436.850342,759.002075 
	C439.874664,759.605164 440.118042,761.934265 440.144775,764.364197 
	C440.196075,769.026489 440.166840,773.690247 440.277679,778.350830 
	C440.316376,779.978516 439.887939,781.959412 442.357544,783.042419 
	C443.469208,778.061890 442.719147,773.414185 442.904449,768.816223 
	C443.102112,763.910645 441.313568,757.918823 450.045227,757.905273 
	C444.455902,757.235840 439.466949,756.617188 434.109955,757.726501 
	C434.741364,758.291809 434.936462,758.554016 435.197235,758.676636 
	C435.489532,758.814087 435.841217,758.825317 436.850342,759.002075 
z"/>
<path fill="#000000" opacity="1.000000" stroke="none" 
	d="
M353.649841,400.464569 
	C356.542603,406.915131 354.480591,410.777466 347.850311,410.834259 
	C329.025116,410.995728 310.196747,410.752014 291.369598,410.743164 
	C281.719086,410.738647 272.068329,410.975739 262.418091,410.949127 
	C256.425323,410.932617 250.431595,410.671936 244.441757,410.433685 
	C240.804337,410.289001 238.291382,408.460541 238.090073,404.717438 
	C237.901443,401.210236 240.119766,399.216583 243.464569,398.585846 
	C245.092163,398.278900 246.770325,398.104706 248.425964,398.102142 
	C280.406677,398.052246 312.387390,398.030029 344.368134,398.024597 
	C347.523102,398.024078 350.756592,397.840179 353.649841,400.464569 
z"/>
<path fill="#000000" opacity="1.000000" stroke="none" 
	d="
M686.000000,294.388672 
	C668.035095,293.950348 650.570129,295.253357 633.104919,294.391754 
	C631.443237,294.309784 629.755371,294.434052 628.121155,294.187531 
	C624.661682,293.665741 622.827881,291.515656 622.818054,288.028595 
	C622.808777,284.726593 624.684814,282.708923 627.807556,282.092072 
	C629.743530,281.709595 631.781677,281.758850 633.773926,281.758728 
	C667.400024,281.756622 701.026123,281.776337 734.652222,281.796875 
	C735.816528,281.797577 737.000610,281.732178 738.141541,281.912231 
	C741.729065,282.478363 743.959045,284.612213 743.993896,288.254333 
	C744.030518,292.074707 741.464966,294.001343 737.932861,294.242706 
	C733.955811,294.514496 729.947327,294.331482 725.952515,294.337006 
	C712.801697,294.355194 699.650818,294.369202 686.000000,294.388672 
z"/>
<path fill="#000000" opacity="1.000000" stroke="none" 
	d="
M678.059937,323.045197 
	C674.742310,322.984497 671.878540,323.177856 669.094971,322.792328 
	C665.509888,322.295715 663.430054,320.021393 663.504028,316.280060 
	C663.574036,312.736847 665.747375,310.800781 669.044678,310.218811 
	C670.994568,309.874664 673.024170,309.893890 675.017639,309.897919 
	C699.341370,309.947113 723.665039,310.023834 747.988770,310.093292 
	C748.321960,310.094238 748.655457,310.085693 748.988342,310.095276 
	C754.890808,310.265167 758.031555,312.489716 758.040833,316.504547 
	C758.049988,320.427032 754.669067,322.934937 749.021790,322.949707 
	C725.531128,323.011139 702.040222,323.016174 678.059937,323.045197 
z"/>
<path fill="#000000" opacity="1.000000" stroke="none" 
	d="
M324.144440,291.154724 
	C326.433411,296.513184 328.679260,301.529633 330.497375,306.696594 
	C331.867828,310.591400 334.218536,312.132751 338.330414,312.042328 
	C343.726379,311.923706 349.216827,311.650696 354.955841,313.813049 
	C353.087799,317.951019 349.774841,320.306213 346.564270,322.269073 
	C339.614777,326.517883 337.269623,331.739685 340.320404,339.645569 
	C341.758514,343.372375 342.918640,347.532196 341.946991,352.109192 
	C337.282379,351.435333 333.910309,348.555115 330.699829,345.932220 
	C325.547302,341.722809 321.117493,341.353088 315.780151,345.711731 
	C312.573700,348.330231 308.956665,350.860016 304.079926,352.134003 
	C303.952606,347.020752 305.362457,342.727509 306.783997,338.626526 
	C309.015930,332.187744 307.472260,327.696594 301.943695,323.727875 
	C298.191040,321.033997 293.970612,318.411133 291.802612,313.385559 
	C296.413300,310.857086 300.990509,312.030304 305.333832,311.891632 
	C314.277588,311.606110 314.292969,311.746063 317.229767,303.259552 
	C318.317780,300.115570 319.234497,296.907776 320.439026,293.810638 
	C321.013702,292.333191 321.090027,289.851135 324.144440,291.154724 
M306.607574,321.104126 
	C315.071533,325.915588 313.783752,333.393555 311.142853,341.464386 
	C316.338715,340.744507 319.104492,336.624329 323.255341,336.354828 
	C327.496094,336.079498 329.930389,341.066711 335.573120,340.962311 
	C330.473907,331.036835 334.421417,324.017303 342.899811,318.887390 
	C340.247803,316.558136 337.964142,317.047363 335.914825,317.139984 
	C331.075226,317.358612 328.042480,315.559784 326.727142,310.682465 
	C326.130585,308.470428 325.682556,305.782074 323.050690,304.736725 
	C321.021912,306.140228 320.265320,308.140839 319.864716,309.982117 
	C318.619324,315.706024 314.864929,317.340851 309.602478,317.047089 
	C308.616333,316.992065 307.572174,317.046814 306.630035,317.315094 
	C304.162201,318.017792 305.118652,319.342285 306.607574,321.104126 
z"/>
<path fill="#000000" opacity="1.000000" stroke="none" 
	d="
M723.563049,380.613525 
	C725.947937,375.852905 726.510193,370.707825 729.292358,366.701935 
	C731.734802,366.666626 731.958679,368.348450 732.469177,369.688599 
	C733.654602,372.800568 734.755676,375.944580 735.930725,379.060577 
	C739.758911,389.212097 737.896667,387.388916 748.568298,387.882751 
	C752.615906,388.070068 756.859985,387.142792 761.243713,389.543793 
	C758.603638,394.455353 753.966431,397.084839 750.128784,400.171234 
	C745.808716,403.645691 744.766418,407.091644 746.217285,412.261780 
	C747.615112,417.242737 749.259094,422.314484 749.001831,428.426636 
	C743.188416,426.408661 739.157654,422.833099 734.741211,420.086212 
	C731.356995,417.981354 728.714111,417.514618 725.296570,419.859985 
	C720.848816,422.912262 716.076599,425.491791 711.131287,428.462677 
	C709.653931,424.746521 710.791443,421.763885 711.902222,419.280975 
	C716.343628,409.353333 714.141052,401.946167 704.751343,396.310913 
	C702.238220,394.802673 699.299866,393.027130 698.577271,389.603699 
	C700.457703,387.234009 702.958984,388.040070 705.181091,387.919342 
	C708.007080,387.765869 710.884338,387.490723 713.667603,387.840179 
	C719.169312,388.530975 722.157349,386.084229 723.563049,380.613525 
M722.194885,392.196747 
	C718.321228,393.326202 714.085571,392.309021 710.037842,393.888031 
	C712.736206,398.247498 718.704468,399.779236 719.440308,404.330811 
	C720.126343,408.573883 718.245911,413.231842 717.449463,417.979950 
	C720.421143,417.513184 722.515137,416.309479 724.176270,414.799896 
	C728.002808,411.322479 731.412048,411.809692 735.235535,414.802368 
	C737.168396,416.315247 739.168091,418.256409 742.080017,418.153290 
	C742.717651,413.032288 739.107178,408.684235 740.167786,404.186554 
	C741.233337,399.668030 746.866272,398.109589 749.677795,392.696716 
	C737.367798,395.397614 732.778381,388.478119 730.804260,377.902405 
	C726.793884,382.836609 726.623169,388.351990 722.194885,392.196747 
z"/>
<path fill="#000000" opacity="1.000000" stroke="none" 
	d="
M692.993652,273.946289 
	C681.666443,273.926697 670.834412,274.070435 660.010864,273.829681 
	C652.473328,273.662048 649.196289,271.211456 649.456543,266.764496 
	C649.700012,262.604431 652.747131,260.926208 660.430664,260.912903 
	C675.591003,260.886688 690.751404,260.918427 705.911804,260.939209 
	C707.242981,260.941040 708.587097,260.939484 709.902649,261.111694 
	C713.320984,261.559204 715.506653,263.529266 715.581360,266.985260 
	C715.659363,270.593475 713.776123,272.882538 709.961609,273.382721 
	C704.484375,274.100891 698.987061,273.913727 692.993652,273.946289 
z"/>
<path fill="#000000" opacity="1.000000" stroke="none" 
	d="
M420.998962,229.035095 
	C428.157837,229.185989 434.817352,229.332001 441.476044,229.509705 
	C445.359985,229.613358 447.968414,231.401520 448.019043,235.478943 
	C448.071503,239.698669 445.521088,242.048630 441.434692,242.077011 
	C426.605286,242.180069 411.773895,242.151566 396.944580,242.024292 
	C392.705139,241.987915 389.855957,239.735092 389.870422,235.280136 
	C389.885010,230.795471 393.269531,229.322220 397.007019,229.205124 
	C404.831787,228.959961 412.667877,229.075867 420.998962,229.035095 
z"/>
<path fill="#000000" opacity="1.000000" stroke="none" 
	d="
M333.144348,424.009399 
	C334.724579,430.521851 332.744293,433.238892 326.495880,433.273254 
	C312.196716,433.351929 297.896576,433.333679 283.597260,433.265808 
	C278.829102,433.243195 275.878693,430.844788 276.120117,427.150482 
	C276.413391,422.662994 279.306641,420.837463 283.544952,420.824677 
	C297.844177,420.781525 312.143494,420.763245 326.442780,420.727081 
	C329.062958,420.720459 331.391052,421.327179 333.144348,424.009399 
z"/>
<path fill="#000000" opacity="1.000000" stroke="none" 
	d="
M285.004425,389.242584 
	C280.180664,389.193329 275.847260,389.294159 271.533478,389.049225 
	C267.855865,388.840454 264.994812,387.121704 264.836121,383.055969 
	C264.677917,379.003479 267.374054,377.162811 271.022430,376.516235 
	C272.489166,376.256317 273.991577,376.139618 275.482483,376.083344 
	C286.611694,375.663086 297.732941,376.820404 308.880096,376.083893 
	C314.281830,375.726959 317.815033,378.696594 317.899139,382.606842 
	C317.980530,386.392517 314.375275,389.130157 308.960999,389.187378 
	C301.142426,389.270050 293.322601,389.230255 285.004425,389.242584 
z"/>
<path fill="#000000" opacity="1.000000" stroke="none" 
	d="
M600.971924,423.463379 
	C600.882202,418.548126 600.917297,414.073059 600.775818,409.603516 
	C600.673157,406.361877 601.836121,404.788239 605.318420,404.625946 
	C613.962952,404.223114 615.079651,405.137451 615.104553,413.905426 
	C615.115906,417.881104 615.077454,421.859741 614.927734,425.832001 
	C614.830017,428.424194 615.211304,431.727509 611.710999,432.230408 
	C607.997742,432.763824 604.348450,431.897186 602.328552,428.160492 
	C601.636719,426.880707 601.442566,425.331848 600.971924,423.463379 
z"/>
<path fill="#000000" opacity="1.000000" stroke="none" 
	d="
M609.333008,466.948517 
	C606.630798,465.743439 604.981201,467.767212 603.180908,468.443787 
	C600.900940,465.816437 599.581909,455.682098 601.499451,453.950073 
	C604.585266,451.162720 608.447937,452.850677 611.946045,453.059906 
	C614.679810,453.223419 615.070557,455.614868 615.082703,457.895721 
	C615.092407,459.715149 615.050354,461.535156 615.011047,463.354462 
	C614.931824,467.025452 613.427979,468.662811 609.333008,466.948517 
z"/>
<path fill="#000000" opacity="1.000000" stroke="none" 
	d="
M604.366211,373.683838 
	C604.065247,374.762299 603.839661,375.503784 603.614136,376.245270 
	C601.892334,371.136719 600.651489,366.104492 602.445435,359.669556 
	C607.836304,364.406952 604.563660,369.103577 604.366211,373.683838 
z"/>
<path fill="#000000" opacity="1.000000" stroke="none" 
	d="
M544.381348,772.992126 
	C545.062927,775.392395 544.460022,777.019226 542.151062,778.773743 
	C541.530823,775.783142 539.600769,773.172546 544.381348,772.992126 
z"/>
<path fill="#000000" opacity="1.000000" stroke="none" 
	d="
M624.636475,782.938965 
	C620.168640,783.571838 617.732849,782.281860 617.878296,777.729248 
	C617.980286,774.536072 617.485596,771.018433 622.225830,770.889465 
	C625.959106,770.787903 630.135681,770.741272 631.019165,775.401489 
	C631.815613,779.603271 629.592712,782.414612 624.636475,782.938965 
z"/>
<path fill="#000000" opacity="1.000000" stroke="none" 
	d="
M628.852173,767.115417 
	C622.636597,770.801941 618.249268,769.710022 618.099792,764.745789 
	C618.019043,762.062988 618.040100,759.202148 621.846497,758.946228 
	C625.132568,758.725342 628.262268,758.778809 629.192566,762.965210 
	C629.485779,764.284790 629.826599,765.540649 628.852173,767.115417 
z"/>
<path fill="#000000" opacity="1.000000" stroke="none" 
	d="
M463.213074,759.007446 
	C473.746307,759.277710 478.796875,766.886597 475.144989,776.277832 
	C473.276123,781.083862 467.571289,784.049133 462.545990,782.920776 
	C460.588654,782.481262 459.768768,781.337402 459.771729,779.415222 
	C459.780212,773.941162 459.765564,768.467163 459.765533,762.993103 
	C459.765503,760.915466 460.633606,759.495422 463.213074,759.007446 
z"/>
<path fill="#000000" opacity="1.000000" stroke="none" 
	d="
M560.775024,768.693481 
	C564.097046,767.729736 566.488220,768.758545 568.043518,771.218262 
	C569.757629,773.929260 569.710999,776.965942 568.285217,779.804138 
	C566.696838,782.966003 562.031982,784.118958 559.233337,782.221008 
	C555.863953,779.936279 554.643311,774.578796 556.989319,771.633911 
	C557.891479,770.501465 559.260620,769.741089 560.775024,768.693481 
z"/>
</svg>